<svg width="1080" height="1080" viewBox="0 0 1080 1080" fill="none" xmlns="http://www.w3.org/2000/svg">
<g filter="url(#filter0_d_36_115)">
<path d="M225.921 983.627C289.581 1016 372.887 1016 539.5 1016C706.113 1016 789.419 1016 853.079 983.627C909.318 955.028 955.028 909.318 983.627 853.079C1016 789.419 1016 706.113 1016 539.5C1016 372.887 1016 289.581 983.627 225.921C955.028 169.682 909.318 123.972 853.079 95.3732C789.419 63 706.113 63 539.5 63C372.887 63 289.581 63 225.921 95.3732C169.682 123.972 123.972 169.682 95.3732 225.921C63 289.581 63 372.887 63 539.5C63 706.113 63 789.419 95.3732 853.079C123.972 909.318 169.682 955.028 225.921 983.627Z" fill="url(#paint0_linear_36_115)" stroke="#F1F1F1" stroke-width="52"/>
<path d="M225.921 983.627C289.581 1016 372.887 1016 539.5 1016C706.113 1016 789.419 1016 853.079 983.627C909.318 955.028 955.028 909.318 983.627 853.079C1016 789.419 1016 706.113 1016 539.5C1016 372.887 1016 289.581 983.627 225.921C955.028 169.682 909.318 123.972 853.079 95.3732C789.419 63 706.113 63 539.5 63C372.887 63 289.581 63 225.921 95.3732C169.682 123.972 123.972 169.682 95.3732 225.921C63 289.581 63 372.887 63 539.5C63 706.113 63 789.419 95.3732 853.079C123.972 909.318 169.682 955.028 225.921 983.627Z" stroke="#FDFDFD" stroke-width="54"/>
<path fill-rule="evenodd" clip-rule="evenodd" d="M178.452 745.342C195.528 673.417 244.348 576.939 339.112 507.84C437.179 436.333 585.784 393.181 802.516 438.846C802.068 439.773 801.62 440.698 801.171 441.62C800.305 442.695 799.363 443.842 798.338 445.063L799.15 445.745C703.258 640.389 579.808 729.895 464.62 763.394C352.006 796.144 245.811 775.799 178.452 745.342ZM324.972 488.448C431.015 411.125 590.051 367.165 817.947 417.627C818.314 417.622 818.686 417.63 819.061 417.653C821.177 417.781 824.601 418.462 827.508 421.281C830.604 424.282 831.425 428.046 831.393 430.88C831.341 435.534 829.032 440.032 826.857 443.59C727.69 652.053 596.547 750.021 471.322 786.439C348.646 822.116 233.198 798.263 161.729 764.029C161.08 763.894 160.416 763.701 159.742 763.438C158.316 762.881 157.145 762.144 156.184 761.308C156.133 761.283 156.083 761.258 156.033 761.232L156.053 761.193C153.14 758.58 152.227 755.05 152.049 752.955C151.829 750.367 152.398 748.13 152.757 746.937C153.175 745.545 153.717 744.273 154.222 743.259L154.291 743.293C171.761 666.177 223.445 562.478 324.972 488.448Z" fill="url(#paint1_angular_36_115)"/>
<path fill-rule="evenodd" clip-rule="evenodd" d="M880.659 747.706C832.891 765.561 758.462 788.644 676.216 766.267C588.756 742.472 488.966 666.155 403.486 467.068L380.514 476.932C467.839 680.314 572.393 763.929 669.653 790.39C766.229 816.666 852.161 785.48 899.483 767.302L899.376 767.023C905.044 764.12 906.044 758.456 906.191 756.474C906.252 755.654 906.235 754.876 906.176 754.167L906.471 754.147C903.583 711.918 872.767 610.168 774.141 525.515L757.858 544.485C844.851 619.154 874.97 707.107 880.659 747.706Z" fill="#FDFDFD"/>
<path fill-rule="evenodd" clip-rule="evenodd" d="M539.584 885.071C481.284 839.617 413.867 755.081 390.463 640.159C366.243 521.232 388.835 368.146 520.537 190.066C521.193 190.859 521.848 191.652 522.5 192.444C523.118 193.678 523.768 195.012 524.451 196.452L525.409 195.997C662.506 364.181 692.532 513.679 675.066 632.361C657.991 748.391 595.306 836.493 539.584 885.071ZM366.945 644.948C340.755 516.348 366.953 353.441 507.661 167.205C507.81 166.869 507.972 166.534 508.149 166.203C509.145 164.332 511.19 161.501 514.963 160.031C518.979 158.465 522.744 159.283 525.308 160.492C529.519 162.476 532.649 166.448 534.979 169.907C683.278 346.819 717.798 506.833 698.811 635.855C680.21 762.252 610.484 857.308 549.619 908.053C549.226 908.587 548.774 909.111 548.254 909.614C547.154 910.679 545.997 911.438 544.837 911.964C544.793 911.999 544.749 912.034 544.705 912.069L544.677 912.035C541.089 913.596 537.5 912.957 535.521 912.248C533.075 911.371 531.278 909.923 530.342 909.1C529.251 908.141 528.32 907.118 527.608 906.237L527.667 906.189C464.813 858.217 392.02 768.072 366.945 644.948Z" fill="url(#paint2_angular_36_115)"/>
<path fill-rule="evenodd" clip-rule="evenodd" d="M178.452 745.342C195.528 673.417 244.348 576.939 339.112 507.84C437.179 436.333 585.784 393.181 802.516 438.846C802.068 439.773 801.62 440.698 801.171 441.62C800.305 442.695 799.363 443.842 798.338 445.063L799.15 445.745C703.258 640.389 579.808 729.895 464.62 763.394C352.006 796.144 245.811 775.799 178.452 745.342ZM324.972 488.448C431.015 411.125 590.051 367.165 817.947 417.627C818.314 417.622 818.686 417.63 819.061 417.653C821.177 417.781 824.601 418.462 827.508 421.281C830.604 424.282 831.425 428.046 831.393 430.88C831.341 435.534 829.032 440.032 826.857 443.59C727.69 652.053 596.547 750.021 471.322 786.439C348.646 822.116 233.198 798.263 161.729 764.029C161.08 763.894 160.416 763.701 159.742 763.438C158.316 762.881 157.145 762.144 156.184 761.308C156.133 761.283 156.083 761.258 156.033 761.232L156.053 761.193C153.14 758.58 152.227 755.05 152.049 752.955C151.829 750.367 152.398 748.13 152.757 746.937C153.175 745.545 153.717 744.273 154.222 743.259L154.291 743.293C171.761 666.177 223.445 562.478 324.972 488.448Z" fill="#FDFDFD"/>
<path fill-rule="evenodd" clip-rule="evenodd" d="M539.584 885.071C481.284 839.617 413.867 755.081 390.463 640.159C366.243 521.232 388.835 368.146 520.537 190.066C521.193 190.859 521.848 191.652 522.5 192.444C523.118 193.678 523.768 195.012 524.451 196.452L525.409 195.997C662.506 364.181 692.532 513.679 675.066 632.361C657.991 748.391 595.306 836.493 539.584 885.071ZM366.945 644.948C340.755 516.348 366.953 353.441 507.661 167.205C507.81 166.869 507.972 166.534 508.149 166.203C509.145 164.332 511.19 161.501 514.963 160.031C518.979 158.465 522.744 159.283 525.308 160.492C529.519 162.476 532.649 166.448 534.979 169.907C683.278 346.819 717.798 506.833 698.811 635.855C680.21 762.252 610.484 857.308 549.619 908.053C549.226 908.587 548.774 909.111 548.254 909.614C547.154 910.679 545.997 911.438 544.837 911.964C544.793 911.999 544.749 912.034 544.705 912.069L544.677 912.035C541.089 913.596 537.5 912.957 535.521 912.248C533.075 911.371 531.278 909.923 530.342 909.1C529.251 908.141 528.32 907.118 527.608 906.237L527.667 906.189C464.813 858.217 392.02 768.072 366.945 644.948Z" fill="#FDFDFD"/>
<g filter="url(#filter1_d_36_115)">
<path d="M283.163 429.807C293.453 413.129 317.704 413.129 327.994 429.807V429.807C338.821 447.355 326.197 469.976 305.579 469.976V469.976C284.96 469.976 272.337 447.355 283.163 429.807V429.807Z" fill="#FFF0E6"/>
</g>
<g filter="url(#filter2_d_36_115)">
<path d="M536.946 400.454C554.632 371.622 596.525 371.622 614.212 400.454V400.454C632.737 430.653 611.007 469.476 575.579 469.476V469.476C540.15 469.476 518.42 430.653 536.946 400.454V400.454Z" fill="#FFF0E6"/>
</g>
<g filter="url(#filter3_d_36_115)">
<path d="M770.392 594.049C782.804 573.699 812.353 573.699 824.765 594.049V594.049C837.709 615.269 822.435 642.476 797.579 642.476V642.476C772.722 642.476 757.448 615.269 770.392 594.049V594.049Z" fill="#FFF0E6"/>
</g>
<g filter="url(#filter4_d_36_115)">
<path d="M610.452 830.353C618.298 817.581 636.859 817.581 644.705 830.353V830.353C652.933 843.746 643.297 860.975 627.579 860.975V860.975C611.86 860.975 602.224 843.746 610.452 830.353V830.353Z" fill="#FFF0E6"/>
</g>
</g>
<defs>
<filter id="filter0_d_36_115" x="-32" y="-28" width="1143" height="1143" filterUnits="userSpaceOnUse" color-interpolation-filters="sRGB">
<feFlood flood-opacity="0" result="BackgroundImageFix"/>
<feColorMatrix in="SourceAlpha" type="matrix" values="0 0 0 0 0 0 0 0 0 0 0 0 0 0 0 0 0 0 127 0" result="hardAlpha"/>
<feOffset dy="4"/>
<feGaussianBlur stdDeviation="34"/>
<feComposite in2="hardAlpha" operator="out"/>
<feColorMatrix type="matrix" values="0 0 0 0 0 0 0 0 0 0 0 0 0 0 0 0 0 0 0.25 0"/>
<feBlend mode="normal" in2="BackgroundImageFix" result="effect1_dropShadow_36_115"/>
<feBlend mode="normal" in="SourceGraphic" in2="effect1_dropShadow_36_115" result="shape"/>
</filter>
<filter id="filter1_d_36_115" x="269.198" y="405.299" width="80.7607" height="80.6772" filterUnits="userSpaceOnUse" color-interpolation-filters="sRGB">
<feFlood flood-opacity="0" result="BackgroundImageFix"/>
<feColorMatrix in="SourceAlpha" type="matrix" values="0 0 0 0 0 0 0 0 0 0 0 0 0 0 0 0 0 0 127 0" result="hardAlpha"/>
<feOffset dx="4" dy="2"/>
<feGaussianBlur stdDeviation="7"/>
<feComposite in2="hardAlpha" operator="out"/>
<feColorMatrix type="matrix" values="0 0 0 0 0 0 0 0 0 0 0 0 0 0 0 0 0 0 0.08 0"/>
<feBlend mode="normal" in2="BackgroundImageFix" result="effect1_dropShadow_36_115"/>
<feBlend mode="normal" in="SourceGraphic" in2="effect1_dropShadow_36_115" result="shape"/>
</filter>
<filter id="filter2_d_36_115" x="520.185" y="366.83" width="118.788" height="118.646" filterUnits="userSpaceOnUse" color-interpolation-filters="sRGB">
<feFlood flood-opacity="0" result="BackgroundImageFix"/>
<feColorMatrix in="SourceAlpha" type="matrix" values="0 0 0 0 0 0 0 0 0 0 0 0 0 0 0 0 0 0 127 0" result="hardAlpha"/>
<feOffset dx="4" dy="2"/>
<feGaussianBlur stdDeviation="7"/>
<feComposite in2="hardAlpha" operator="out"/>
<feColorMatrix type="matrix" values="0 0 0 0 0 0 0 0 0 0 0 0 0 0 0 0 0 0 0.08 0"/>
<feBlend mode="normal" in2="BackgroundImageFix" result="effect1_dropShadow_36_115"/>
<feBlend mode="normal" in="SourceGraphic" in2="effect1_dropShadow_36_115" result="shape"/>
</filter>
<filter id="filter3_d_36_115" x="755.684" y="566.786" width="91.79" height="91.6897" filterUnits="userSpaceOnUse" color-interpolation-filters="sRGB">
<feFlood flood-opacity="0" result="BackgroundImageFix"/>
<feColorMatrix in="SourceAlpha" type="matrix" values="0 0 0 0 0 0 0 0 0 0 0 0 0 0 0 0 0 0 127 0" result="hardAlpha"/>
<feOffset dx="4" dy="2"/>
<feGaussianBlur stdDeviation="7"/>
<feComposite in2="hardAlpha" operator="out"/>
<feColorMatrix type="matrix" values="0 0 0 0 0 0 0 0 0 0 0 0 0 0 0 0 0 0 0.08 0"/>
<feBlend mode="normal" in2="BackgroundImageFix" result="effect1_dropShadow_36_115"/>
<feBlend mode="normal" in="SourceGraphic" in2="effect1_dropShadow_36_115" result="shape"/>
</filter>
<filter id="filter4_d_36_115" x="597.446" y="808.774" width="68.2646" height="68.2013" filterUnits="userSpaceOnUse" color-interpolation-filters="sRGB">
<feFlood flood-opacity="0" result="BackgroundImageFix"/>
<feColorMatrix in="SourceAlpha" type="matrix" values="0 0 0 0 0 0 0 0 0 0 0 0 0 0 0 0 0 0 127 0" result="hardAlpha"/>
<feOffset dx="4" dy="2"/>
<feGaussianBlur stdDeviation="7"/>
<feComposite in2="hardAlpha" operator="out"/>
<feColorMatrix type="matrix" values="0 0 0 0 0 0 0 0 0 0 0 0 0 0 0 0 0 0 0.08 0"/>
<feBlend mode="normal" in2="BackgroundImageFix" result="effect1_dropShadow_36_115"/>
<feBlend mode="normal" in="SourceGraphic" in2="effect1_dropShadow_36_115" result="shape"/>
</filter>
<linearGradient id="paint0_linear_36_115" x1="539.5" y1="63" x2="539.5" y2="1016" gradientUnits="userSpaceOnUse">
<stop stop-color="#A3E4DB"/>
<stop offset="0.555208" stop-color="#0C79FF"/>
<stop offset="0.958333" stop-color="#FED1EF"/>
</linearGradient>
<radialGradient id="paint1_angular_36_115" cx="0" cy="0" r="1" gradientUnits="userSpaceOnUse" gradientTransform="translate(491.697 600.091) rotate(90) scale(204.039 339.697)">
<stop stop-color="#A3E4DB"/>
<stop offset="0.253125" stop-color="#1C6DD0"/>
<stop offset="0.76875" stop-color="#1C6DD0"/>
<stop offset="1" stop-color="#A3E4DB"/>
</radialGradient>
<radialGradient id="paint2_angular_36_115" cx="0" cy="0" r="1" gradientUnits="userSpaceOnUse" gradientTransform="translate(537.836 539.792) rotate(24.5872) scale(204.039 339.697)">
<stop stop-color="#A3E4DB"/>
<stop offset="0.253125" stop-color="#1C6DD0"/>
<stop offset="0.76875" stop-color="#1C6DD0"/>
<stop offset="1" stop-color="#A3E4DB"/>
</radialGradient>
</defs>
</svg>
