<svg width="1007" height="1007" viewBox="0 0 1007 1007" fill="none" xmlns="http://www.w3.org/2000/svg">
<path d="M189.921 947.627C253.581 980 336.887 980 503.5 980C670.113 980 753.419 980 817.079 947.627C873.318 919.028 919.028 873.318 947.627 817.079C980 753.419 980 670.113 980 503.5C980 336.887 980 253.581 947.627 189.921C919.028 133.682 873.318 87.9721 817.079 59.3732C753.419 27 670.113 27 503.5 27C336.887 27 253.581 27 189.921 59.3732C133.682 87.9721 87.9721 133.682 59.3732 189.921C27 253.581 27 336.887 27 503.5C27 670.113 27 753.419 59.3732 817.079C87.9721 873.318 133.682 919.028 189.921 947.627Z" fill="url(#paint0_linear_15_117)" fill-opacity="0.7" stroke="#F1F1F1" stroke-width="52"/>
<path d="M189.921 947.627C253.581 980 336.887 980 503.5 980C670.113 980 753.419 980 817.079 947.627C873.318 919.028 919.028 873.318 947.627 817.079C980 753.419 980 670.113 980 503.5C980 336.887 980 253.581 947.627 189.921C919.028 133.682 873.318 87.9721 817.079 59.3732C753.419 27 670.113 27 503.5 27C336.887 27 253.581 27 189.921 59.3732C133.682 87.9721 87.9721 133.682 59.3732 189.921C27 253.581 27 336.887 27 503.5C27 670.113 27 753.419 59.3732 817.079C87.9721 873.318 133.682 919.028 189.921 947.627Z" stroke="#FDFDFD" stroke-width="54"/>
<path fill-rule="evenodd" clip-rule="evenodd" d="M142.452 709.342C159.528 637.417 208.348 540.938 303.112 471.84C401.179 400.333 549.784 357.181 766.516 402.846C766.068 403.773 765.62 404.698 765.171 405.62C764.305 406.695 763.363 407.842 762.338 409.063L763.15 409.745C667.258 604.389 543.808 693.895 428.62 727.394C316.006 760.144 209.811 739.799 142.452 709.342ZM288.972 452.447C395.015 375.125 554.051 331.165 781.947 381.627C782.314 381.622 782.686 381.63 783.061 381.653C785.177 381.781 788.601 382.462 791.508 385.281C794.604 388.282 795.425 392.045 795.393 394.88C795.341 399.534 793.032 404.032 790.857 407.59C691.69 616.053 560.547 714.021 435.322 750.439C312.646 786.115 197.198 762.262 125.729 728.029C125.08 727.894 124.416 727.701 123.742 727.438C122.316 726.88 121.145 726.144 120.184 725.308C120.133 725.283 120.083 725.258 120.033 725.232L120.053 725.193C117.14 722.58 116.227 719.05 116.049 716.955C115.829 714.367 116.398 712.13 116.757 710.937C117.175 709.544 117.717 708.273 118.222 707.259L118.291 707.293C135.761 630.177 187.445 526.478 288.972 452.447Z" fill="url(#paint1_angular_15_117)"/>
<path fill-rule="evenodd" clip-rule="evenodd" d="M844.659 711.706C796.891 729.561 722.462 752.644 640.216 730.267C552.756 706.472 452.966 630.155 367.486 431.068L344.514 440.932C431.839 644.314 536.393 727.929 633.653 754.39C730.229 780.666 816.161 749.48 863.483 731.302L863.376 731.023C869.044 728.12 870.044 722.456 870.191 720.474C870.252 719.654 870.235 718.876 870.176 718.167L870.471 718.147C867.583 675.918 836.767 574.168 738.141 489.515L721.858 508.485C808.851 583.154 838.97 671.107 844.659 711.706Z" fill="#FDFDFD"/>
<path fill-rule="evenodd" clip-rule="evenodd" d="M503.584 849.071C445.284 803.618 377.867 719.081 354.463 604.159C330.243 485.232 352.835 332.146 484.537 154.066C485.193 154.859 485.848 155.652 486.5 156.445C487.118 157.678 487.768 159.012 488.451 160.452L489.409 159.997C626.506 328.181 656.532 477.679 639.066 596.361C621.991 712.391 559.306 800.493 503.584 849.071ZM330.945 608.948C304.755 480.348 330.953 317.441 471.661 131.205C471.81 130.869 471.972 130.534 472.149 130.203C473.145 128.332 475.19 125.502 478.963 124.031C482.979 122.465 486.744 123.283 489.308 124.492C493.519 126.476 496.649 130.448 498.979 133.907C647.278 310.819 681.798 470.833 662.811 599.855C644.21 726.252 574.484 821.308 513.619 872.053C513.226 872.587 512.774 873.111 512.254 873.614C511.154 874.679 509.997 875.438 508.837 875.964C508.793 875.999 508.749 876.034 508.705 876.07L508.677 876.035C505.089 877.596 501.5 876.957 499.521 876.248C497.075 875.371 495.278 873.923 494.342 873.1C493.251 872.141 492.32 871.119 491.608 870.238L491.667 870.189C428.813 822.218 356.02 732.072 330.945 608.948Z" fill="url(#paint2_angular_15_117)"/>
<path fill-rule="evenodd" clip-rule="evenodd" d="M142.452 709.342C159.528 637.417 208.348 540.938 303.112 471.84C401.179 400.333 549.784 357.181 766.516 402.846C766.068 403.773 765.62 404.698 765.171 405.62C764.305 406.695 763.363 407.842 762.338 409.063L763.15 409.745C667.258 604.389 543.808 693.895 428.62 727.394C316.006 760.144 209.811 739.799 142.452 709.342ZM288.972 452.447C395.015 375.125 554.051 331.165 781.947 381.627C782.314 381.622 782.686 381.63 783.061 381.653C785.177 381.781 788.601 382.462 791.508 385.281C794.604 388.282 795.425 392.045 795.393 394.88C795.341 399.534 793.032 404.032 790.857 407.59C691.69 616.053 560.547 714.021 435.322 750.439C312.646 786.115 197.198 762.262 125.729 728.029C125.08 727.894 124.416 727.701 123.742 727.438C122.316 726.88 121.145 726.144 120.184 725.308C120.133 725.283 120.083 725.258 120.033 725.232L120.053 725.193C117.14 722.58 116.227 719.05 116.049 716.955C115.829 714.367 116.398 712.13 116.757 710.937C117.175 709.544 117.717 708.273 118.222 707.259L118.291 707.293C135.761 630.177 187.445 526.478 288.972 452.447Z" fill="#FDFDFD"/>
<path fill-rule="evenodd" clip-rule="evenodd" d="M503.584 849.071C445.284 803.618 377.867 719.081 354.463 604.159C330.243 485.232 352.835 332.146 484.537 154.066C485.193 154.859 485.848 155.652 486.5 156.445C487.118 157.678 487.768 159.012 488.451 160.452L489.409 159.997C626.506 328.181 656.532 477.679 639.066 596.361C621.991 712.391 559.306 800.493 503.584 849.071ZM330.945 608.948C304.755 480.348 330.953 317.441 471.661 131.205C471.81 130.869 471.972 130.534 472.149 130.203C473.145 128.332 475.19 125.502 478.963 124.031C482.979 122.465 486.744 123.283 489.308 124.492C493.519 126.476 496.649 130.448 498.979 133.907C647.278 310.819 681.798 470.833 662.811 599.855C644.21 726.252 574.484 821.308 513.619 872.053C513.226 872.587 512.774 873.111 512.254 873.614C511.154 874.679 509.997 875.438 508.837 875.964C508.793 875.999 508.749 876.034 508.705 876.07L508.677 876.035C505.089 877.596 501.5 876.957 499.521 876.248C497.075 875.371 495.278 873.923 494.342 873.1C493.251 872.141 492.32 871.119 491.608 870.238L491.667 870.189C428.813 822.218 356.02 732.072 330.945 608.948Z" fill="#FDFDFD"/>
<g filter="url(#filter0_d_15_117)">
<path d="M247.163 393.807C257.453 377.129 281.704 377.129 291.994 393.807C302.821 411.355 290.197 433.976 269.579 433.976C248.96 433.976 236.337 411.355 247.163 393.807Z" fill="#FFF0E6"/>
</g>
<g filter="url(#filter1_d_15_117)">
<path d="M500.946 364.454C518.632 335.622 560.525 335.622 578.212 364.454C596.737 394.653 575.007 433.476 539.579 433.476C504.15 433.476 482.42 394.653 500.946 364.454Z" fill="#FFF0E6"/>
</g>
<g filter="url(#filter2_d_15_117)">
<path d="M734.392 558.049C746.804 537.699 776.353 537.699 788.765 558.049C801.709 579.269 786.435 606.476 761.579 606.476C736.722 606.476 721.448 579.269 734.392 558.049Z" fill="#FFF0E6"/>
</g>
<g filter="url(#filter3_d_15_117)">
<path d="M574.452 794.353C582.298 781.581 600.859 781.581 608.705 794.353C616.933 807.746 607.297 824.976 591.579 824.976C575.86 824.976 566.224 807.746 574.452 794.353Z" fill="#FFF0E6"/>
</g>
<defs>
<filter id="filter0_d_15_117" x="233.198" y="369.299" width="80.7607" height="80.6772" filterUnits="userSpaceOnUse" color-interpolation-filters="sRGB">
<feFlood flood-opacity="0" result="BackgroundImageFix"/>
<feColorMatrix in="SourceAlpha" type="matrix" values="0 0 0 0 0 0 0 0 0 0 0 0 0 0 0 0 0 0 127 0" result="hardAlpha"/>
<feOffset dx="4" dy="2"/>
<feGaussianBlur stdDeviation="7"/>
<feComposite in2="hardAlpha" operator="out"/>
<feColorMatrix type="matrix" values="0 0 0 0 0 0 0 0 0 0 0 0 0 0 0 0 0 0 0.08 0"/>
<feBlend mode="normal" in2="BackgroundImageFix" result="effect1_dropShadow_15_117"/>
<feBlend mode="normal" in="SourceGraphic" in2="effect1_dropShadow_15_117" result="shape"/>
</filter>
<filter id="filter1_d_15_117" x="484.185" y="330.83" width="118.788" height="118.646" filterUnits="userSpaceOnUse" color-interpolation-filters="sRGB">
<feFlood flood-opacity="0" result="BackgroundImageFix"/>
<feColorMatrix in="SourceAlpha" type="matrix" values="0 0 0 0 0 0 0 0 0 0 0 0 0 0 0 0 0 0 127 0" result="hardAlpha"/>
<feOffset dx="4" dy="2"/>
<feGaussianBlur stdDeviation="7"/>
<feComposite in2="hardAlpha" operator="out"/>
<feColorMatrix type="matrix" values="0 0 0 0 0 0 0 0 0 0 0 0 0 0 0 0 0 0 0.08 0"/>
<feBlend mode="normal" in2="BackgroundImageFix" result="effect1_dropShadow_15_117"/>
<feBlend mode="normal" in="SourceGraphic" in2="effect1_dropShadow_15_117" result="shape"/>
</filter>
<filter id="filter2_d_15_117" x="719.684" y="530.786" width="91.79" height="91.6898" filterUnits="userSpaceOnUse" color-interpolation-filters="sRGB">
<feFlood flood-opacity="0" result="BackgroundImageFix"/>
<feColorMatrix in="SourceAlpha" type="matrix" values="0 0 0 0 0 0 0 0 0 0 0 0 0 0 0 0 0 0 127 0" result="hardAlpha"/>
<feOffset dx="4" dy="2"/>
<feGaussianBlur stdDeviation="7"/>
<feComposite in2="hardAlpha" operator="out"/>
<feColorMatrix type="matrix" values="0 0 0 0 0 0 0 0 0 0 0 0 0 0 0 0 0 0 0.08 0"/>
<feBlend mode="normal" in2="BackgroundImageFix" result="effect1_dropShadow_15_117"/>
<feBlend mode="normal" in="SourceGraphic" in2="effect1_dropShadow_15_117" result="shape"/>
</filter>
<filter id="filter3_d_15_117" x="561.446" y="772.774" width="68.2646" height="68.2014" filterUnits="userSpaceOnUse" color-interpolation-filters="sRGB">
<feFlood flood-opacity="0" result="BackgroundImageFix"/>
<feColorMatrix in="SourceAlpha" type="matrix" values="0 0 0 0 0 0 0 0 0 0 0 0 0 0 0 0 0 0 127 0" result="hardAlpha"/>
<feOffset dx="4" dy="2"/>
<feGaussianBlur stdDeviation="7"/>
<feComposite in2="hardAlpha" operator="out"/>
<feColorMatrix type="matrix" values="0 0 0 0 0 0 0 0 0 0 0 0 0 0 0 0 0 0 0.08 0"/>
<feBlend mode="normal" in2="BackgroundImageFix" result="effect1_dropShadow_15_117"/>
<feBlend mode="normal" in="SourceGraphic" in2="effect1_dropShadow_15_117" result="shape"/>
</filter>
<linearGradient id="paint0_linear_15_117" x1="503.5" y1="27" x2="503.5" y2="980" gradientUnits="userSpaceOnUse">
<stop stop-color="#A3E4DB"/>
<stop offset="0.555208" stop-color="#0C79FF" stop-opacity="0.8"/>
<stop offset="0.958333" stop-color="#FED1EF" stop-opacity="0.7"/>
</linearGradient>
<radialGradient id="paint1_angular_15_117" cx="0" cy="0" r="1" gradientUnits="userSpaceOnUse" gradientTransform="translate(455.697 564.091) rotate(90) scale(204.039 339.697)">
<stop stop-color="#A3E4DB"/>
<stop offset="0.253125" stop-color="#1C6DD0"/>
<stop offset="0.76875" stop-color="#1C6DD0"/>
<stop offset="1" stop-color="#A3E4DB"/>
</radialGradient>
<radialGradient id="paint2_angular_15_117" cx="0" cy="0" r="1" gradientUnits="userSpaceOnUse" gradientTransform="translate(501.836 503.792) rotate(24.5872) scale(204.039 339.697)">
<stop stop-color="#A3E4DB"/>
<stop offset="0.253125" stop-color="#1C6DD0"/>
<stop offset="0.76875" stop-color="#1C6DD0"/>
<stop offset="1" stop-color="#A3E4DB"/>
</radialGradient>
</defs>
</svg>
