<svg width="1222" height="279" viewBox="0 0 1222 279" fill="none" xmlns="http://www.w3.org/2000/svg">
<path d="M250.01 251.178L236.235 213.477H141.159L127.049 251.178H55.1533L155.605 15.2075H227.5L324.593 251.178H250.01ZM160.645 162.31H217.758L189.537 85.2244L160.645 162.31Z" fill="#F178B6"/>
<path d="M443.404 242.426C436.909 246.016 428.958 248.934 419.551 251.178C410.368 253.198 401.073 254.208 391.666 254.208C372.181 254.208 356.615 248.822 344.968 238.05C333.321 227.278 327.498 212.579 327.498 193.953V120.906H302.301V77.4822H327.498V26.6526H395.026V77.4822H440.044V120.906H395.026V183.517C395.026 189.352 396.37 193.728 399.057 196.646C401.745 199.563 405.553 201.022 410.48 201.022C414.736 201.022 421.679 199.226 431.31 195.636L443.404 242.426Z" fill="#F178B6"/>
<path d="M83.1499 82.8905C82.03 85.8528 80.4174 88.0745 78.3121 89.5556C76.2515 91.0816 73.7878 91.8446 70.921 91.8446C69.174 91.8446 67.5838 91.5753 66.1504 91.0367C64.7617 90.543 63.3731 89.7351 61.9845 88.6131L65.7472 81.948C66.5983 82.5764 67.3822 83.0252 68.0989 83.2945C68.8157 83.6087 69.5772 83.7657 70.3835 83.7657C72.7576 83.7657 74.5046 82.5539 75.6244 80.1303L76.6995 77.7739L61.8501 42.3615H70.921L81.1342 68.5505L90.4738 42.3615H99.276L83.1499 82.8905Z" fill="#F178B6"/>
<path d="M27.8902 21.7155C34.5534 21.7155 39.757 23.2097 43.5011 26.1982C47.3087 29.123 49.2124 33.1924 49.2124 38.4062C49.2124 42.3484 48.1019 45.6548 45.8808 48.3253C43.7232 50.9958 40.6772 52.7444 36.7427 53.571C41.6291 54.2068 45.4366 56.0189 48.1654 59.0074C50.8941 61.9958 52.2585 65.779 52.2585 70.3571C52.2585 76.0796 50.1326 80.5305 45.8808 83.7096C41.6291 86.8888 35.7274 88.4784 28.1758 88.4784H0V21.7155H27.8902ZM27.6046 51.1866C32.3006 51.1866 35.9495 50.1692 38.5513 48.1345C41.1531 46.0363 42.4541 43.0796 42.4541 39.2646C42.4541 35.5768 41.1531 32.7155 38.5513 30.6808C35.9495 28.6461 32.3006 27.6606 27.6046 27.7242H6.568V51.1866H27.6046ZM27.6046 82.5651C33.316 82.5651 37.7264 81.4524 40.8358 79.227C44.0088 76.938 45.5953 73.7588 45.5953 69.6894C45.5953 65.6837 44.0088 62.5681 40.8358 60.3426C37.6629 58.1172 33.2525 57.0045 27.6046 57.0045H6.568V82.5651H27.6046Z" fill="#F178B6"/>
<path d="M986.768 59.7535C999.535 59.7535 1010.85 62.6709 1020.7 68.5056C1030.55 74.116 1038.17 82.1948 1043.55 92.7423C1048.92 103.29 1051.61 115.52 1051.61 129.434V245.568H983.745V148.958C983.745 139.981 981.393 132.8 976.69 127.414C972.21 122.028 966.163 119.335 958.548 119.335C949.813 119.56 942.87 122.926 937.718 129.434C932.567 135.942 929.991 144.469 929.991 155.017V245.568H862.127V148.958C862.127 139.981 859.776 132.8 855.072 127.414C850.593 122.028 844.545 119.335 836.93 119.335C828.195 119.56 821.14 122.926 815.765 129.434C810.614 135.942 808.038 144.469 808.038 155.017V245.568H740.174V62.4465H808.038V90.3859C814.309 80.5117 822.26 72.9939 831.891 67.8324C841.522 62.4465 852.497 59.7535 864.815 59.7535C878.925 59.7535 891.244 63.2319 901.771 70.1887C912.297 77.1456 920.024 86.9075 924.952 99.4747C930.775 86.6831 938.95 76.9211 949.477 70.1887C960.227 63.2319 972.658 59.7535 986.768 59.7535Z" fill="#F178B6"/>
<path d="M1199.49 124.385C1174.63 111.593 1154.7 105.197 1139.69 105.197C1135.43 105.197 1132.08 105.983 1129.61 107.554C1127.15 108.9 1125.92 111.032 1125.92 113.949C1125.92 117.315 1128.16 120.121 1132.63 122.365C1137.34 124.385 1144.73 126.741 1154.81 129.434C1168.25 133.249 1179.33 137.064 1188.07 140.879C1197.03 144.694 1204.75 150.529 1211.25 158.383C1217.97 166.013 1221.33 175.887 1221.33 188.006C1221.33 206.632 1213.94 221.443 1199.15 232.439C1184.6 243.211 1165.22 248.597 1141.03 248.597C1124.91 248.597 1109.45 246.465 1094.67 242.201C1080.11 237.713 1066.9 231.205 1055.03 222.677L1075.86 179.927C1087.28 187.332 1098.59 192.943 1109.79 196.758C1121.21 200.573 1131.96 202.48 1142.04 202.48C1146.75 202.48 1150.44 201.807 1153.13 200.461C1155.82 198.89 1157.16 196.758 1157.16 194.065C1157.16 190.699 1154.92 188.006 1150.44 185.986C1146.19 183.742 1139.02 181.273 1128.94 178.58C1115.95 174.99 1105.09 171.287 1096.35 167.472C1087.62 163.657 1080 157.934 1073.51 150.304C1067.01 142.674 1063.76 132.8 1063.76 120.682C1063.76 101.831 1070.93 86.9075 1085.26 75.9113C1099.6 64.915 1118.41 59.4169 1141.71 59.4169C1169.7 59.4169 1196.47 66.8225 1222 81.6338L1199.49 124.385Z" fill="#F178B6"/>
<path fill-rule="evenodd" clip-rule="evenodd" d="M692.326 201.781C677.581 206.705 658.183 210.922 637.246 205.226C611.881 198.325 580.783 175.77 553.392 111.976L530.42 121.839C559.655 189.929 595.518 219.782 630.683 229.349C665.164 238.73 695.597 227.519 711.215 221.519L710.793 220.421C716.635 217.708 717.577 212.042 717.703 210.331C717.742 209.813 717.744 209.322 717.724 208.869L718.877 208.791C717.782 192.782 706.687 157.322 672.604 128.067L656.321 147.037C678.912 166.428 688.793 188.528 692.326 201.781Z" fill="#F178B6"/>
<path fill-rule="evenodd" clip-rule="evenodd" d="M481.574 201.738C488.041 180.67 502.876 154.456 529.324 135.171C557.807 114.403 600.962 100.8 664.423 111.941C634.445 168.969 597.298 194.803 563.451 204.647C532.018 213.788 502.2 209.501 481.574 201.738ZM455.901 207.672L455.393 207.574C460.673 180.334 478.559 142.485 515.184 115.779C552.238 88.7604 607.081 74.1511 684.101 91.4097L683.982 91.9396C685.674 92.285 687.829 93.0999 689.767 94.978C692.626 97.7499 693.313 101.169 693.287 103.517C693.265 105.485 692.756 107.25 692.168 108.664L692.704 108.914C659.277 180.416 614.188 214.886 570.153 227.692C526.629 240.35 485.742 231.365 460.957 218.892L461.223 218.365C457.194 215.898 456.09 211.73 455.909 209.6C455.85 208.909 455.857 208.26 455.901 207.672Z" fill="#F178B6"/>
<path fill-rule="evenodd" clip-rule="evenodd" d="M589.975 241.52C573.507 226.875 555.841 202.476 549.309 170.4C542.274 135.86 547.86 90.9585 584.394 37.8886C623.779 88.8785 631.816 133.407 626.684 168.281C621.918 200.666 605.615 225.995 589.975 241.52ZM584.684 267.335L584.385 267.753C561.813 251.618 534.837 219.606 525.792 175.19C516.64 130.253 526.174 74.3044 573.914 11.4492L574.349 11.7796C575.367 10.3862 577.004 8.76773 579.515 7.78879C583.225 6.34229 586.62 7.1395 588.744 8.14037C590.525 8.97943 591.919 10.1764 592.959 11.2997L593.41 10.9159C644.521 71.0622 657.105 126.405 650.428 171.775C643.829 216.62 618.647 250.061 596.992 267.409L596.623 266.949C592.705 269.584 588.457 268.853 586.444 268.132C585.79 267.897 585.201 267.62 584.684 267.335Z" fill="#F178B6"/>
</svg>
