<svg width="1502" height="450" viewBox="0 0 1502 450" fill="none" xmlns="http://www.w3.org/2000/svg">
<rect width="1502" height="450" rx="79" fill="#FED1EF"/>
<g filter="url(#filter0_d_47_480)">
<path d="M384.01 340.178L370.235 302.477H275.159L261.049 340.178H189.153L289.605 104.208H361.5L458.593 340.178H384.01ZM294.645 251.31H351.758L323.537 174.224L294.645 251.31Z" fill="white"/>
<path d="M577.404 331.426C570.909 335.016 562.958 337.934 553.551 340.178C544.368 342.198 535.073 343.208 525.666 343.208C506.181 343.208 490.615 337.822 478.968 327.05C467.321 316.278 461.498 301.579 461.498 282.953V209.906H436.301V166.482H461.498V115.653H529.026V166.482H574.044V209.906H529.026V272.517C529.026 278.352 530.37 282.728 533.057 285.646C535.745 288.563 539.553 290.022 544.48 290.022C548.736 290.022 555.679 288.226 565.31 284.636L577.404 331.426Z" fill="white"/>
<path d="M217.15 171.891C216.03 174.853 214.417 177.074 212.312 178.556C210.252 180.082 207.788 180.845 204.921 180.845C203.174 180.845 201.584 180.575 200.15 180.037C198.762 179.543 197.373 178.735 195.984 177.613L199.747 170.948C200.598 171.576 201.382 172.025 202.099 172.294C202.816 172.609 203.577 172.766 204.383 172.766C206.758 172.766 208.505 171.554 209.624 169.13L210.699 166.774L195.85 131.362H204.921L215.134 157.551L224.474 131.362H233.276L217.15 171.891Z" fill="white"/>
<path d="M161.89 110.716C168.553 110.716 173.757 112.21 177.501 115.198C181.309 118.123 183.212 122.192 183.212 127.406C183.212 131.348 182.102 134.655 179.881 137.325C177.723 139.996 174.677 141.744 170.743 142.571C175.629 143.207 179.437 145.019 182.165 148.007C184.894 150.996 186.258 154.779 186.258 159.357C186.258 165.08 184.133 169.53 179.881 172.71C175.629 175.889 169.727 177.478 162.176 177.478H134V110.716H161.89ZM161.605 140.187C166.301 140.187 169.95 139.169 172.551 137.135C175.153 135.036 176.454 132.08 176.454 128.265C176.454 124.577 175.153 121.715 172.551 119.681C169.95 117.646 166.301 116.661 161.605 116.724H140.568V140.187H161.605ZM161.605 171.565C167.316 171.565 171.726 170.452 174.836 168.227C178.009 165.938 179.595 162.759 179.595 158.689C179.595 154.684 178.009 151.568 174.836 149.343C171.663 147.117 167.252 146.004 161.605 146.004H140.568V171.565H161.605Z" fill="white"/>
<path d="M1120.77 148.754C1133.53 148.754 1144.85 151.671 1154.7 157.506C1164.55 163.116 1172.17 171.195 1177.55 181.742C1182.92 192.29 1185.61 204.52 1185.61 218.434V334.568H1117.74V237.958C1117.74 228.981 1115.39 221.8 1110.69 216.414C1106.21 211.028 1100.16 208.335 1092.55 208.335C1083.81 208.56 1076.87 211.926 1071.72 218.434C1066.57 224.942 1063.99 233.469 1063.99 244.017V334.568H996.127V237.958C996.127 228.981 993.776 221.8 989.072 216.414C984.593 211.028 978.545 208.335 970.93 208.335C962.195 208.56 955.14 211.926 949.765 218.434C944.614 224.942 942.038 233.469 942.038 244.017V334.568H874.174V151.446H942.038V179.386C948.309 169.512 956.26 161.994 965.891 156.832C975.522 151.446 986.497 148.754 998.815 148.754C1012.93 148.754 1025.24 152.232 1035.77 159.189C1046.3 166.146 1054.02 175.908 1058.95 188.475C1064.78 175.683 1072.95 165.921 1083.48 159.189C1094.23 152.232 1106.66 148.754 1120.77 148.754Z" fill="white"/>
<path d="M1333.49 213.385C1308.63 200.593 1288.7 194.197 1273.69 194.197C1269.43 194.197 1266.08 194.983 1263.61 196.554C1261.15 197.9 1259.92 200.032 1259.92 202.949C1259.92 206.315 1262.16 209.121 1266.63 211.365C1271.34 213.385 1278.73 215.741 1288.81 218.434C1302.25 222.249 1313.33 226.064 1322.07 229.879C1331.03 233.694 1338.75 239.529 1345.25 247.383C1351.97 255.013 1355.33 264.887 1355.33 277.006C1355.33 295.632 1347.94 310.443 1333.15 321.439C1318.6 332.211 1299.22 337.597 1275.03 337.597C1258.91 337.597 1243.45 335.465 1228.67 331.201C1214.11 326.713 1200.9 320.205 1189.03 311.677L1209.86 268.927C1221.28 276.332 1232.59 281.943 1243.79 285.758C1255.21 289.573 1265.96 291.48 1276.04 291.48C1280.75 291.48 1284.44 290.807 1287.13 289.461C1289.82 287.89 1291.16 285.758 1291.16 283.065C1291.16 279.699 1288.92 277.006 1284.44 274.986C1280.19 272.742 1273.02 270.273 1262.94 267.58C1249.95 263.99 1239.09 260.287 1230.35 256.472C1221.62 252.657 1214 246.934 1207.51 239.304C1201.01 231.674 1197.76 221.8 1197.76 209.682C1197.76 190.831 1204.93 175.908 1219.26 164.911C1233.6 153.915 1252.41 148.417 1275.71 148.417C1303.7 148.417 1330.47 155.823 1356 170.634L1333.49 213.385Z" fill="white"/>
</g>
<g filter="url(#filter1_d_47_480)">
<path fill-rule="evenodd" clip-rule="evenodd" d="M826.326 290.781C811.581 295.705 792.183 299.922 771.246 294.226C745.881 287.325 714.783 264.77 687.392 200.976L664.42 210.839C693.655 278.929 729.518 308.781 764.683 318.349C799.164 327.73 829.597 316.518 845.215 310.519L844.793 309.421C850.635 306.708 851.577 301.042 851.703 299.331C851.742 298.813 851.744 298.322 851.724 297.869L852.877 297.791C851.782 281.782 840.687 246.322 806.604 217.067L790.321 236.037C812.912 255.428 822.793 277.528 826.326 290.781Z" fill="#FDFDFD"/>
<path fill-rule="evenodd" clip-rule="evenodd" d="M615.574 290.738C622.041 269.67 636.876 243.456 663.324 224.171C691.807 203.403 734.962 189.8 798.423 200.941C768.445 257.969 731.298 283.803 697.451 293.647C666.018 302.788 636.2 298.501 615.574 290.738ZM589.901 296.672L589.393 296.574C594.673 269.334 612.559 231.485 649.184 204.779C686.238 177.76 741.081 163.151 818.101 180.41L817.982 180.94C819.674 181.285 821.829 182.1 823.767 183.978C826.626 186.75 827.313 190.169 827.287 192.517C827.265 194.485 826.756 196.25 826.168 197.664L826.704 197.914C793.277 269.416 748.188 303.886 704.153 316.692C660.629 329.35 619.742 320.365 594.957 307.892L595.223 307.365C591.194 304.898 590.09 300.73 589.909 298.6C589.85 297.909 589.857 297.26 589.901 296.672Z" fill="#FDFDFD"/>
<path fill-rule="evenodd" clip-rule="evenodd" d="M723.975 330.52C707.507 315.875 689.841 291.476 683.309 259.4C676.274 224.86 681.86 179.959 718.394 126.889C757.779 177.878 765.816 222.407 760.684 257.281C755.918 289.666 739.615 314.995 723.975 330.52ZM718.684 356.335L718.385 356.753C695.813 340.618 668.837 308.606 659.792 264.19C650.64 219.253 660.174 163.304 707.914 100.449L708.349 100.78C709.367 99.3862 711.004 97.7677 713.515 96.7888C717.225 95.3423 720.62 96.1395 722.744 97.1404C724.525 97.9794 725.919 99.1764 726.959 100.3L727.41 99.9159C778.521 160.062 791.105 215.405 784.428 260.775C777.829 305.62 752.647 339.061 730.992 356.409L730.623 355.949C726.705 358.584 722.457 357.853 720.444 357.132C719.79 356.897 719.201 356.62 718.684 356.335Z" fill="#FDFDFD"/>
</g>
<defs>
<filter id="filter0_d_47_480" x="119" y="94.2075" width="1262" height="279" filterUnits="userSpaceOnUse" color-interpolation-filters="sRGB">
<feFlood flood-opacity="0" result="BackgroundImageFix"/>
<feColorMatrix in="SourceAlpha" type="matrix" values="0 0 0 0 0 0 0 0 0 0 0 0 0 0 0 0 0 0 127 0" result="hardAlpha"/>
<feOffset dx="5" dy="10"/>
<feGaussianBlur stdDeviation="10"/>
<feComposite in2="hardAlpha" operator="out"/>
<feColorMatrix type="matrix" values="0 0 0 0 0 0 0 0 0 0 0 0 0 0 0 0 0 0 0.15 0"/>
<feBlend mode="darken" in2="BackgroundImageFix" result="effect1_dropShadow_47_480"/>
<feBlend mode="normal" in="SourceGraphic" in2="effect1_dropShadow_47_480" result="shape"/>
</filter>
<filter id="filter1_d_47_480" x="566.393" y="77.9991" width="319.484" height="317.806" filterUnits="userSpaceOnUse" color-interpolation-filters="sRGB">
<feFlood flood-opacity="0" result="BackgroundImageFix"/>
<feColorMatrix in="SourceAlpha" type="matrix" values="0 0 0 0 0 0 0 0 0 0 0 0 0 0 0 0 0 0 127 0" result="hardAlpha"/>
<feOffset dx="5" dy="10"/>
<feGaussianBlur stdDeviation="14"/>
<feComposite in2="hardAlpha" operator="out"/>
<feColorMatrix type="matrix" values="0 0 0 0 0 0 0 0 0 0 0 0 0 0 0 0 0 0 0.15 0"/>
<feBlend mode="normal" in2="BackgroundImageFix" result="effect1_dropShadow_47_480"/>
<feBlend mode="normal" in="SourceGraphic" in2="effect1_dropShadow_47_480" result="shape"/>
</filter>
</defs>
</svg>
