<svg width="1080" height="1080" viewBox="0 0 1080 1080" fill="none" xmlns="http://www.w3.org/2000/svg">
<rect width="1080" height="1080" fill="white"/>
<path fill-rule="evenodd" clip-rule="evenodd" d="M178.452 745.342C195.528 673.417 244.348 576.938 339.112 507.84C437.179 436.333 585.784 393.181 802.516 438.846C802.068 439.773 801.62 440.698 801.171 441.62C800.305 442.695 799.363 443.842 798.338 445.063L799.15 445.745C703.258 640.389 579.808 729.895 464.62 763.394C352.006 796.144 245.811 775.799 178.452 745.342ZM324.972 488.447C431.015 411.125 590.051 367.165 817.947 417.627C818.314 417.622 818.686 417.63 819.061 417.653C821.177 417.781 824.601 418.462 827.508 421.281C830.604 424.282 831.425 428.045 831.393 430.88C831.341 435.534 829.032 440.032 826.857 443.59C727.69 652.053 596.547 750.021 471.322 786.439C348.646 822.115 233.198 798.262 161.729 764.029C161.08 763.894 160.416 763.701 159.742 763.438C158.316 762.88 157.145 762.144 156.184 761.308C156.133 761.283 156.083 761.258 156.033 761.232L156.053 761.193C153.14 758.58 152.227 755.05 152.049 752.955C151.829 750.367 152.398 748.13 152.757 746.937C153.175 745.544 153.717 744.273 154.222 743.259L154.291 743.293C171.761 666.177 223.445 562.478 324.972 488.447Z" fill="url(#paint0_angular_6_120)"/>
<path fill-rule="evenodd" clip-rule="evenodd" d="M880.554 749.564C867.42 686.664 830.342 602.999 759.072 543.198C685.61 481.559 574.457 444.112 411.833 483.049L412.021 483.493C412.598 484.312 413.218 485.178 413.886 486.093L413.345 486.604C486.141 656.792 579.786 734.798 666.899 763.95C750.7 791.994 829.714 775.262 880.554 749.564ZM774.498 524.813C693.378 456.748 571.86 418.061 398.623 461.578C398.036 461.532 397.429 461.524 396.808 461.567C394.906 461.699 391.589 462.42 388.742 465.596C385.736 468.95 385.055 473.003 385.082 475.748C385.122 479.899 386.745 483.785 388.289 486.8C463.878 670.052 564.035 756.367 659.931 788.459C756.264 820.696 846.868 797.724 901.324 766.188L901.197 765.889C904.672 763.28 905.759 759.54 906.084 757.414L906.445 757.353C906.37 756.91 906.294 756.466 906.218 756.021C906.304 753.915 905.906 752.133 905.651 751.158C905.427 750.3 905.156 749.493 904.88 748.776C891.652 681.326 852.316 590.107 774.498 524.813Z" fill="url(#paint1_angular_6_120)"/>
<path d="M583.996 584.478C583.996 754.732 722.127 570.187 656.145 437.214C651.025 426.897 445.422 434.658 413.799 470.147C406.245 478.624 423.982 496.886 439.082 507.429L464.981 541.604L583.996 584.478Z" fill="white" stroke="white" stroke-width="7"/>
<path fill-rule="evenodd" clip-rule="evenodd" d="M539.584 885.072C481.284 839.618 413.867 755.081 390.463 640.159C366.243 521.232 388.835 368.146 520.537 190.066C521.193 190.859 521.848 191.652 522.5 192.445C523.118 193.679 523.768 195.012 524.451 196.452L525.409 195.997C662.506 364.181 692.532 513.68 675.066 632.361C657.991 748.392 595.306 836.493 539.584 885.072ZM366.945 644.949C340.755 516.349 366.953 353.442 507.661 167.206C507.81 166.869 507.972 166.535 508.149 166.203C509.145 164.332 511.19 161.502 514.963 160.031C518.979 158.465 522.744 159.284 525.308 160.492C529.519 162.477 532.649 166.449 534.979 169.907C683.278 346.819 717.798 506.833 698.811 635.856C680.21 762.253 610.484 857.308 549.619 908.053C549.226 908.587 548.774 909.111 548.254 909.614C547.154 910.679 545.997 911.438 544.837 911.964C544.793 911.999 544.749 912.035 544.705 912.07L544.677 912.035C541.089 913.596 537.5 912.958 535.521 912.248C533.075 911.371 531.278 909.923 530.342 909.101C529.251 908.141 528.32 907.119 527.608 906.238L527.667 906.189C464.813 858.218 392.02 768.073 366.945 644.949Z" fill="url(#paint2_angular_6_120)"/>
<path d="M283.163 429.807C293.453 413.129 317.704 413.129 327.994 429.807V429.807C338.821 447.355 326.197 469.976 305.579 469.976V469.976C284.96 469.976 272.337 447.355 283.163 429.807V429.807Z" fill="#FED1EF"/>
<path d="M536.946 400.454C554.632 371.622 596.525 371.622 614.212 400.454V400.454C632.737 430.653 611.007 469.476 575.579 469.476V469.476C540.15 469.476 518.42 430.653 536.946 400.454V400.454Z" fill="#FED1EF"/>
<path d="M770.392 594.049C782.804 573.699 812.353 573.699 824.765 594.049V594.049C837.709 615.269 822.435 642.476 797.579 642.476V642.476C772.722 642.476 757.448 615.269 770.392 594.049V594.049Z" fill="#FED1EF"/>
<path d="M610.452 830.353C618.298 817.582 636.859 817.582 644.705 830.353V830.353C652.933 843.746 643.297 860.976 627.579 860.976V860.976C611.86 860.976 602.224 843.746 610.452 830.353V830.353Z" fill="#FED1EF"/>
<path d="M414.045 505C404.902 501.611 387.36 491.58 390.336 478.567C392.248 470.201 411.681 460.828 431.246 453.579C413.394 471.815 414.665 490.544 416.37 494.833L414.045 505Z" fill="#3886D3"/>
<path d="M461 444C453.03 446.179 442.118 449.551 431.246 453.579M431.246 453.579C411.681 460.828 392.248 470.201 390.336 478.567C387.36 491.58 404.902 501.611 414.045 505L416.37 494.833C414.665 490.544 413.394 471.815 431.246 453.579Z" stroke="#3A87D3"/>
<path d="M464 453.5V445.5L433 455V460L464 453.5Z" fill="white" stroke="white"/>
<path d="M387.025 476.415C385.55 482.019 449.853 445.59 470.795 442.682L473 420L394.19 449.08C391.985 451.406 389.78 465.946 387.025 476.415Z" fill="#1C6DD0"/>
<path d="M462.126 444.844C452.453 448.109 433.1 454.954 433.071 456.209" stroke="#1C6DD0"/>
<path d="M405 470L417 495C420.333 483.333 426.9 460 426.5 460C426.1 460 412 466.667 405 470Z" fill="white"/>
<defs>
<radialGradient id="paint0_angular_6_120" cx="0" cy="0" r="1" gradientUnits="userSpaceOnUse" gradientTransform="translate(491.697 600.091) rotate(90) scale(204.039 339.697)">
<stop stop-color="#A3E4DB"/>
<stop offset="0.253125" stop-color="#1C6DD0"/>
<stop offset="0.76875" stop-color="#1C6DD0"/>
<stop offset="1" stop-color="#A3E4DB"/>
</radialGradient>
<radialGradient id="paint1_angular_6_120" cx="0" cy="0" r="1" gradientUnits="userSpaceOnUse" gradientTransform="translate(645.763 623.598) rotate(90) scale(180.429 260.682)">
<stop offset="0.0135415" stop-color="#1C6DD0"/>
<stop offset="0.216667" stop-color="#A3E4DB"/>
<stop offset="0.76875" stop-color="#1C6DD0"/>
<stop offset="1" stop-color="#A3E4DB"/>
</radialGradient>
<radialGradient id="paint2_angular_6_120" cx="0" cy="0" r="1" gradientUnits="userSpaceOnUse" gradientTransform="translate(537.836 539.793) rotate(24.5872) scale(204.039 339.697)">
<stop stop-color="#A3E4DB"/>
<stop offset="0.253125" stop-color="#1C6DD0"/>
<stop offset="0.76875" stop-color="#1C6DD0"/>
<stop offset="1" stop-color="#A3E4DB"/>
</radialGradient>
</defs>
</svg>
