<svg width="1554" height="511" viewBox="0 0 1554 511" fill="none" xmlns="http://www.w3.org/2000/svg">
<rect width="1554" height="511" fill="white"/>
<rect x="26" y="25" width="1502" height="450" rx="79" fill="#FED1EF"/>
<g filter="url(#filter0_d_46_446)">
<path d="M410.01 365.178L396.235 327.477H301.159L287.049 365.178H215.153L315.605 129.208H387.5L484.593 365.178H410.01ZM320.645 276.31H377.758L349.537 199.224L320.645 276.31Z" fill="white"/>
<path d="M603.404 356.426C596.909 360.016 588.958 362.934 579.551 365.178C570.368 367.198 561.073 368.208 551.666 368.208C532.181 368.208 516.615 362.822 504.968 352.05C493.321 341.278 487.498 326.579 487.498 307.953V234.906H462.301V191.482H487.498V140.653H555.026V191.482H600.044V234.906H555.026V297.517C555.026 303.352 556.37 307.728 559.057 310.646C561.745 313.563 565.553 315.022 570.48 315.022C574.736 315.022 581.679 313.226 591.31 309.636L603.404 356.426Z" fill="white"/>
<path d="M243.15 196.891C242.03 199.853 240.417 202.074 238.312 203.556C236.252 205.082 233.788 205.845 230.921 205.845C229.174 205.845 227.584 205.575 226.15 205.037C224.762 204.543 223.373 203.735 221.984 202.613L225.747 195.948C226.598 196.576 227.382 197.025 228.099 197.294C228.816 197.609 229.577 197.766 230.383 197.766C232.758 197.766 234.505 196.554 235.624 194.13L236.699 191.774L221.85 156.362H230.921L241.134 182.551L250.474 156.362H259.276L243.15 196.891Z" fill="white"/>
<path d="M187.89 135.716C194.553 135.716 199.757 137.21 203.501 140.198C207.309 143.123 209.212 147.192 209.212 152.406C209.212 156.348 208.102 159.655 205.881 162.325C203.723 164.996 200.677 166.744 196.743 167.571C201.629 168.207 205.437 170.019 208.165 173.007C210.894 175.996 212.258 179.779 212.258 184.357C212.258 190.08 210.133 194.53 205.881 197.71C201.629 200.889 195.727 202.478 188.176 202.478H160V135.716H187.89ZM187.605 165.187C192.301 165.187 195.95 164.169 198.551 162.135C201.153 160.036 202.454 157.08 202.454 153.265C202.454 149.577 201.153 146.715 198.551 144.681C195.95 142.646 192.301 141.661 187.605 141.724H166.568V165.187H187.605ZM187.605 196.565C193.316 196.565 197.726 195.452 200.836 193.227C204.009 190.938 205.595 187.759 205.595 183.689C205.595 179.684 204.009 176.568 200.836 174.343C197.663 172.117 193.252 171.004 187.605 171.004H166.568V196.565H187.605Z" fill="white"/>
<path d="M1146.77 173.754C1159.53 173.754 1170.85 176.671 1180.7 182.506C1190.55 188.116 1198.17 196.195 1203.55 206.742C1208.92 217.29 1211.61 229.52 1211.61 243.434V359.568H1143.74V262.958C1143.74 253.981 1141.39 246.8 1136.69 241.414C1132.21 236.028 1126.16 233.335 1118.55 233.335C1109.81 233.56 1102.87 236.926 1097.72 243.434C1092.57 249.942 1089.99 258.469 1089.99 269.017V359.568H1022.13V262.958C1022.13 253.981 1019.78 246.8 1015.07 241.414C1010.59 236.028 1004.55 233.335 996.93 233.335C988.195 233.56 981.14 236.926 975.765 243.434C970.614 249.942 968.038 258.469 968.038 269.017V359.568H900.174V176.446H968.038V204.386C974.309 194.512 982.26 186.994 991.891 181.832C1001.52 176.446 1012.5 173.754 1024.82 173.754C1038.93 173.754 1051.24 177.232 1061.77 184.189C1072.3 191.146 1080.02 200.908 1084.95 213.475C1090.78 200.683 1098.95 190.921 1109.48 184.189C1120.23 177.232 1132.66 173.754 1146.77 173.754Z" fill="white"/>
<path d="M1359.49 238.385C1334.63 225.593 1314.7 219.197 1299.69 219.197C1295.43 219.197 1292.08 219.983 1289.61 221.554C1287.15 222.9 1285.92 225.032 1285.92 227.949C1285.92 231.315 1288.16 234.121 1292.63 236.365C1297.34 238.385 1304.73 240.741 1314.81 243.434C1328.25 247.249 1339.33 251.064 1348.07 254.879C1357.03 258.694 1364.75 264.529 1371.25 272.383C1377.97 280.013 1381.33 289.887 1381.33 302.006C1381.33 320.632 1373.94 335.443 1359.15 346.439C1344.6 357.211 1325.22 362.597 1301.03 362.597C1284.91 362.597 1269.45 360.465 1254.67 356.201C1240.11 351.713 1226.9 345.205 1215.03 336.677L1235.86 293.927C1247.28 301.332 1258.59 306.943 1269.79 310.758C1281.21 314.573 1291.96 316.48 1302.04 316.48C1306.75 316.48 1310.44 315.807 1313.13 314.461C1315.82 312.89 1317.16 310.758 1317.16 308.065C1317.16 304.699 1314.92 302.006 1310.44 299.986C1306.19 297.742 1299.02 295.273 1288.94 292.58C1275.95 288.99 1265.09 285.287 1256.35 281.472C1247.62 277.657 1240 271.934 1233.51 264.304C1227.01 256.674 1223.76 246.8 1223.76 234.682C1223.76 215.831 1230.93 200.908 1245.26 189.911C1259.6 178.915 1278.41 173.417 1301.71 173.417C1329.7 173.417 1356.47 180.823 1382 195.634L1359.49 238.385Z" fill="white"/>
</g>
<g filter="url(#filter1_d_46_446)">
<path fill-rule="evenodd" clip-rule="evenodd" d="M852.326 315.781C837.581 320.705 818.183 324.922 797.246 319.226C771.881 312.325 740.783 289.77 713.392 225.976L690.42 235.839C719.655 303.929 755.518 333.781 790.683 343.349C825.164 352.73 855.597 341.518 871.215 335.519L870.793 334.421C876.635 331.708 877.577 326.042 877.703 324.331C877.742 323.813 877.744 323.322 877.724 322.869L878.877 322.791C877.782 306.782 866.687 271.322 832.604 242.067L816.321 261.037C838.912 280.428 848.793 302.528 852.326 315.781Z" fill="#FDFDFD"/>
<path fill-rule="evenodd" clip-rule="evenodd" d="M641.574 315.738C648.041 294.67 662.876 268.456 689.324 249.171C717.807 228.403 760.962 214.8 824.423 225.941C794.445 282.969 757.298 308.803 723.451 318.647C692.018 327.788 662.2 323.501 641.574 315.738ZM615.901 321.672L615.393 321.574C620.673 294.334 638.559 256.485 675.184 229.779C712.238 202.76 767.081 188.151 844.101 205.41L843.982 205.94C845.674 206.285 847.829 207.1 849.767 208.978C852.626 211.75 853.313 215.169 853.287 217.517C853.265 219.485 852.756 221.25 852.168 222.664L852.704 222.914C819.277 294.416 774.188 328.886 730.153 341.692C686.629 354.35 645.742 345.365 620.957 332.892L621.223 332.365C617.194 329.898 616.09 325.73 615.909 323.6C615.85 322.909 615.857 322.26 615.901 321.672Z" fill="#FDFDFD"/>
<path fill-rule="evenodd" clip-rule="evenodd" d="M749.975 355.52C733.507 340.875 715.841 316.476 709.309 284.4C702.274 249.86 707.86 204.959 744.394 151.889C783.779 202.878 791.816 247.407 786.684 282.281C781.918 314.666 765.615 339.995 749.975 355.52ZM744.684 381.335L744.385 381.753C721.813 365.618 694.837 333.606 685.792 289.19C676.64 244.253 686.174 188.304 733.914 125.449L734.349 125.78C735.367 124.386 737.004 122.768 739.515 121.789C743.225 120.342 746.62 121.14 748.744 122.14C750.525 122.979 751.919 124.176 752.959 125.3L753.41 124.916C804.521 185.062 817.105 240.405 810.428 285.775C803.829 330.62 778.647 364.061 756.992 381.409L756.623 380.949C752.705 383.584 748.457 382.853 746.444 382.132C745.79 381.897 745.201 381.62 744.684 381.335Z" fill="#FDFDFD"/>
</g>
<defs>
<filter id="filter0_d_46_446" x="145" y="119.208" width="1262" height="279" filterUnits="userSpaceOnUse" color-interpolation-filters="sRGB">
<feFlood flood-opacity="0" result="BackgroundImageFix"/>
<feColorMatrix in="SourceAlpha" type="matrix" values="0 0 0 0 0 0 0 0 0 0 0 0 0 0 0 0 0 0 127 0" result="hardAlpha"/>
<feOffset dx="5" dy="10"/>
<feGaussianBlur stdDeviation="10"/>
<feComposite in2="hardAlpha" operator="out"/>
<feColorMatrix type="matrix" values="0 0 0 0 0 0 0 0 0 0 0 0 0 0 0 0 0 0 0.15 0"/>
<feBlend mode="darken" in2="BackgroundImageFix" result="effect1_dropShadow_46_446"/>
<feBlend mode="normal" in="SourceGraphic" in2="effect1_dropShadow_46_446" result="shape"/>
</filter>
<filter id="filter1_d_46_446" x="592.393" y="102.999" width="319.484" height="317.806" filterUnits="userSpaceOnUse" color-interpolation-filters="sRGB">
<feFlood flood-opacity="0" result="BackgroundImageFix"/>
<feColorMatrix in="SourceAlpha" type="matrix" values="0 0 0 0 0 0 0 0 0 0 0 0 0 0 0 0 0 0 127 0" result="hardAlpha"/>
<feOffset dx="5" dy="10"/>
<feGaussianBlur stdDeviation="14"/>
<feComposite in2="hardAlpha" operator="out"/>
<feColorMatrix type="matrix" values="0 0 0 0 0 0 0 0 0 0 0 0 0 0 0 0 0 0 0.15 0"/>
<feBlend mode="normal" in2="BackgroundImageFix" result="effect1_dropShadow_46_446"/>
<feBlend mode="normal" in="SourceGraphic" in2="effect1_dropShadow_46_446" result="shape"/>
</filter>
</defs>
</svg>
