<svg width="1554" height="433" viewBox="0 0 1554 433" fill="none" xmlns="http://www.w3.org/2000/svg">
<rect width="1554" height="433" fill="white"/>
<path d="M410.01 326.178L396.235 288.477H301.159L287.049 326.178H215.153L315.605 90.2075H387.5L484.593 326.178H410.01ZM320.645 237.31H377.758L349.537 160.224L320.645 237.31Z" fill="#F178B6"/>
<path d="M603.404 317.426C596.909 321.016 588.958 323.934 579.551 326.178C570.368 328.198 561.073 329.208 551.666 329.208C532.181 329.208 516.615 323.822 504.968 313.05C493.321 302.278 487.498 287.579 487.498 268.953V195.906H462.301V152.482H487.498V101.653H555.026V152.482H600.044V195.906H555.026V258.517C555.026 264.352 556.37 268.728 559.057 271.646C561.745 274.563 565.553 276.022 570.48 276.022C574.736 276.022 581.679 274.226 591.31 270.636L603.404 317.426Z" fill="#F178B6"/>
<path d="M243.15 157.891C242.03 160.853 240.417 163.074 238.312 164.556C236.252 166.082 233.788 166.845 230.921 166.845C229.174 166.845 227.584 166.575 226.15 166.037C224.762 165.543 223.373 164.735 221.984 163.613L225.747 156.948C226.598 157.576 227.382 158.025 228.099 158.294C228.816 158.609 229.577 158.766 230.383 158.766C232.758 158.766 234.505 157.554 235.624 155.13L236.699 152.774L221.85 117.362H230.921L241.134 143.551L250.474 117.362H259.276L243.15 157.891Z" fill="#F178B6"/>
<path d="M187.89 96.7155C194.553 96.7155 199.757 98.2097 203.501 101.198C207.309 104.123 209.212 108.192 209.212 113.406C209.212 117.348 208.102 120.655 205.881 123.325C203.723 125.996 200.677 127.744 196.743 128.571C201.629 129.207 205.437 131.019 208.165 134.007C210.894 136.996 212.258 140.779 212.258 145.357C212.258 151.08 210.133 155.53 205.881 158.71C201.629 161.889 195.727 163.478 188.176 163.478H160V96.7155H187.89ZM187.605 126.187C192.301 126.187 195.95 125.169 198.551 123.135C201.153 121.036 202.454 118.08 202.454 114.265C202.454 110.577 201.153 107.715 198.551 105.681C195.95 103.646 192.301 102.661 187.605 102.724H166.568V126.187H187.605ZM187.605 157.565C193.316 157.565 197.726 156.452 200.836 154.227C204.009 151.938 205.595 148.759 205.595 144.689C205.595 140.684 204.009 137.568 200.836 135.343C197.663 133.117 193.252 132.004 187.605 132.004H166.568V157.565H187.605Z" fill="#F178B6"/>
<path d="M1146.77 134.754C1159.53 134.754 1170.85 137.671 1180.7 143.506C1190.55 149.116 1198.17 157.195 1203.55 167.742C1208.92 178.29 1211.61 190.52 1211.61 204.434V320.568H1143.74V223.958C1143.74 214.981 1141.39 207.8 1136.69 202.414C1132.21 197.028 1126.16 194.335 1118.55 194.335C1109.81 194.56 1102.87 197.926 1097.72 204.434C1092.57 210.942 1089.99 219.469 1089.99 230.017V320.568H1022.13V223.958C1022.13 214.981 1019.78 207.8 1015.07 202.414C1010.59 197.028 1004.55 194.335 996.93 194.335C988.195 194.56 981.14 197.926 975.765 204.434C970.614 210.942 968.038 219.469 968.038 230.017V320.568H900.174V137.446H968.038V165.386C974.309 155.512 982.26 147.994 991.891 142.832C1001.52 137.446 1012.5 134.754 1024.82 134.754C1038.93 134.754 1051.24 138.232 1061.77 145.189C1072.3 152.146 1080.02 161.908 1084.95 174.475C1090.78 161.683 1098.95 151.921 1109.48 145.189C1120.23 138.232 1132.66 134.754 1146.77 134.754Z" fill="#F178B6"/>
<path d="M1359.49 199.385C1334.63 186.593 1314.7 180.197 1299.69 180.197C1295.43 180.197 1292.08 180.983 1289.61 182.554C1287.15 183.9 1285.92 186.032 1285.92 188.949C1285.92 192.315 1288.16 195.121 1292.63 197.365C1297.34 199.385 1304.73 201.741 1314.81 204.434C1328.25 208.249 1339.33 212.064 1348.07 215.879C1357.03 219.694 1364.75 225.529 1371.25 233.383C1377.97 241.013 1381.33 250.887 1381.33 263.006C1381.33 281.632 1373.94 296.443 1359.15 307.439C1344.6 318.211 1325.22 323.597 1301.03 323.597C1284.91 323.597 1269.45 321.465 1254.67 317.201C1240.11 312.713 1226.9 306.205 1215.03 297.677L1235.86 254.927C1247.28 262.332 1258.59 267.943 1269.79 271.758C1281.21 275.573 1291.96 277.48 1302.04 277.48C1306.75 277.48 1310.44 276.807 1313.13 275.461C1315.82 273.89 1317.16 271.758 1317.16 269.065C1317.16 265.699 1314.92 263.006 1310.44 260.986C1306.19 258.742 1299.02 256.273 1288.94 253.58C1275.95 249.99 1265.09 246.287 1256.35 242.472C1247.62 238.657 1240 232.934 1233.51 225.304C1227.01 217.674 1223.76 207.8 1223.76 195.682C1223.76 176.831 1230.93 161.908 1245.26 150.911C1259.6 139.915 1278.41 134.417 1301.71 134.417C1329.7 134.417 1356.47 141.823 1382 156.634L1359.49 199.385Z" fill="#F178B6"/>
<path fill-rule="evenodd" clip-rule="evenodd" d="M852.326 276.781C837.581 281.705 818.183 285.922 797.246 280.226C771.881 273.325 740.783 250.77 713.392 186.976L690.42 196.839C719.655 264.929 755.518 294.782 790.683 304.349C825.164 313.73 855.597 302.519 871.215 296.519L870.793 295.421C876.635 292.708 877.577 287.042 877.703 285.331C877.742 284.813 877.744 284.322 877.724 283.869L878.877 283.791C877.782 267.782 866.687 232.322 832.604 203.067L816.321 222.037C838.912 241.428 848.793 263.528 852.326 276.781Z" fill="#F178B6"/>
<path fill-rule="evenodd" clip-rule="evenodd" d="M641.574 276.738C648.041 255.67 662.876 229.456 689.324 210.171C717.807 189.403 760.962 175.8 824.423 186.941C794.445 243.969 757.298 269.803 723.451 279.647C692.018 288.788 662.2 284.501 641.574 276.738ZM615.901 282.672L615.393 282.574C620.673 255.334 638.559 217.485 675.184 190.779C712.238 163.76 767.081 149.151 844.101 166.41L843.982 166.94C845.674 167.285 847.829 168.1 849.767 169.978C852.626 172.75 853.313 176.169 853.287 178.517C853.265 180.485 852.756 182.25 852.168 183.664L852.704 183.914C819.277 255.416 774.188 289.886 730.153 302.692C686.629 315.35 645.742 306.365 620.957 293.892L621.223 293.365C617.194 290.898 616.09 286.73 615.909 284.6C615.85 283.909 615.857 283.26 615.901 282.672Z" fill="#F178B6"/>
<path fill-rule="evenodd" clip-rule="evenodd" d="M749.975 316.52C733.507 301.875 715.841 277.476 709.309 245.4C702.274 210.86 707.86 165.959 744.394 112.889C783.779 163.878 791.816 208.407 786.684 243.281C781.918 275.666 765.615 300.995 749.975 316.52ZM744.684 342.335L744.385 342.753C721.813 326.618 694.837 294.606 685.792 250.19C676.64 205.253 686.174 149.304 733.914 86.4492L734.349 86.7796C735.367 85.3862 737.004 83.7677 739.515 82.7888C743.225 81.3423 746.62 82.1395 748.744 83.1404C750.525 83.9794 751.919 85.1764 752.959 86.2997L753.41 85.9159C804.521 146.062 817.105 201.405 810.428 246.775C803.829 291.62 778.647 325.061 756.992 342.409L756.623 341.949C752.705 344.584 748.457 343.853 746.444 343.132C745.79 342.897 745.201 342.62 744.684 342.335Z" fill="#F178B6"/>
</svg>
